<?xml version="1.0" encoding="utf-8"?>
<svg xmlns="http://www.w3.org/2000/svg" xmlns:xlink="http://www.w3.org/1999/xlink" style="margin: auto; background: none; display: block; shape-rendering: auto;" width="271px" height="271px" viewBox="0 0 100 100" preserveAspectRatio="xMidYMid">
<g transform="rotate(0 50 50)">
  <rect x="48.5" y="36.5" rx="1.5" ry="0.5" width="3" height="1" fill="#cacaca">
    <animate attributeName="opacity" values="1;0" keyTimes="0;1" dur="1.075268817204301s" begin="-1.032258064516129s" repeatCount="indefinite"></animate>
  </rect>
</g><g transform="rotate(14.4 50 50)">
  <rect x="48.5" y="36.5" rx="1.5" ry="0.5" width="3" height="1" fill="#cacaca">
    <animate attributeName="opacity" values="1;0" keyTimes="0;1" dur="1.075268817204301s" begin="-0.989247311827957s" repeatCount="indefinite"></animate>
  </rect>
</g><g transform="rotate(28.8 50 50)">
  <rect x="48.5" y="36.5" rx="1.5" ry="0.5" width="3" height="1" fill="#cacaca">
    <animate attributeName="opacity" values="1;0" keyTimes="0;1" dur="1.075268817204301s" begin="-0.946236559139785s" repeatCount="indefinite"></animate>
  </rect>
</g><g transform="rotate(43.2 50 50)">
  <rect x="48.5" y="36.5" rx="1.5" ry="0.5" width="3" height="1" fill="#cacaca">
    <animate attributeName="opacity" values="1;0" keyTimes="0;1" dur="1.075268817204301s" begin="-0.9032258064516129s" repeatCount="indefinite"></animate>
  </rect>
</g><g transform="rotate(57.6 50 50)">
  <rect x="48.5" y="36.5" rx="1.5" ry="0.5" width="3" height="1" fill="#cacaca">
    <animate attributeName="opacity" values="1;0" keyTimes="0;1" dur="1.075268817204301s" begin="-0.8602150537634409s" repeatCount="indefinite"></animate>
  </rect>
</g><g transform="rotate(72 50 50)">
  <rect x="48.5" y="36.5" rx="1.5" ry="0.5" width="3" height="1" fill="#cacaca">
    <animate attributeName="opacity" values="1;0" keyTimes="0;1" dur="1.075268817204301s" begin="-0.8172043010752689s" repeatCount="indefinite"></animate>
  </rect>
</g><g transform="rotate(86.4 50 50)">
  <rect x="48.5" y="36.5" rx="1.5" ry="0.5" width="3" height="1" fill="#cacaca">
    <animate attributeName="opacity" values="1;0" keyTimes="0;1" dur="1.075268817204301s" begin="-0.7741935483870968s" repeatCount="indefinite"></animate>
  </rect>
</g><g transform="rotate(100.8 50 50)">
  <rect x="48.5" y="36.5" rx="1.5" ry="0.5" width="3" height="1" fill="#cacaca">
    <animate attributeName="opacity" values="1;0" keyTimes="0;1" dur="1.075268817204301s" begin="-0.7311827956989247s" repeatCount="indefinite"></animate>
  </rect>
</g><g transform="rotate(115.2 50 50)">
  <rect x="48.5" y="36.5" rx="1.5" ry="0.5" width="3" height="1" fill="#cacaca">
    <animate attributeName="opacity" values="1;0" keyTimes="0;1" dur="1.075268817204301s" begin="-0.6881720430107527s" repeatCount="indefinite"></animate>
  </rect>
</g><g transform="rotate(129.6 50 50)">
  <rect x="48.5" y="36.5" rx="1.5" ry="0.5" width="3" height="1" fill="#cacaca">
    <animate attributeName="opacity" values="1;0" keyTimes="0;1" dur="1.075268817204301s" begin="-0.6451612903225806s" repeatCount="indefinite"></animate>
  </rect>
</g><g transform="rotate(144 50 50)">
  <rect x="48.5" y="36.5" rx="1.5" ry="0.5" width="3" height="1" fill="#cacaca">
    <animate attributeName="opacity" values="1;0" keyTimes="0;1" dur="1.075268817204301s" begin="-0.6021505376344086s" repeatCount="indefinite"></animate>
  </rect>
</g><g transform="rotate(158.4 50 50)">
  <rect x="48.5" y="36.5" rx="1.5" ry="0.5" width="3" height="1" fill="#cacaca">
    <animate attributeName="opacity" values="1;0" keyTimes="0;1" dur="1.075268817204301s" begin="-0.5591397849462365s" repeatCount="indefinite"></animate>
  </rect>
</g><g transform="rotate(172.8 50 50)">
  <rect x="48.5" y="36.5" rx="1.5" ry="0.5" width="3" height="1" fill="#cacaca">
    <animate attributeName="opacity" values="1;0" keyTimes="0;1" dur="1.075268817204301s" begin="-0.5161290322580645s" repeatCount="indefinite"></animate>
  </rect>
</g><g transform="rotate(187.2 50 50)">
  <rect x="48.5" y="36.5" rx="1.5" ry="0.5" width="3" height="1" fill="#cacaca">
    <animate attributeName="opacity" values="1;0" keyTimes="0;1" dur="1.075268817204301s" begin="-0.4731182795698925s" repeatCount="indefinite"></animate>
  </rect>
</g><g transform="rotate(201.6 50 50)">
  <rect x="48.5" y="36.5" rx="1.5" ry="0.5" width="3" height="1" fill="#cacaca">
    <animate attributeName="opacity" values="1;0" keyTimes="0;1" dur="1.075268817204301s" begin="-0.43010752688172044s" repeatCount="indefinite"></animate>
  </rect>
</g><g transform="rotate(216 50 50)">
  <rect x="48.5" y="36.5" rx="1.5" ry="0.5" width="3" height="1" fill="#cacaca">
    <animate attributeName="opacity" values="1;0" keyTimes="0;1" dur="1.075268817204301s" begin="-0.3870967741935484s" repeatCount="indefinite"></animate>
  </rect>
</g><g transform="rotate(230.4 50 50)">
  <rect x="48.5" y="36.5" rx="1.5" ry="0.5" width="3" height="1" fill="#cacaca">
    <animate attributeName="opacity" values="1;0" keyTimes="0;1" dur="1.075268817204301s" begin="-0.34408602150537637s" repeatCount="indefinite"></animate>
  </rect>
</g><g transform="rotate(244.8 50 50)">
  <rect x="48.5" y="36.5" rx="1.5" ry="0.5" width="3" height="1" fill="#cacaca">
    <animate attributeName="opacity" values="1;0" keyTimes="0;1" dur="1.075268817204301s" begin="-0.3010752688172043s" repeatCount="indefinite"></animate>
  </rect>
</g><g transform="rotate(259.2 50 50)">
  <rect x="48.5" y="36.5" rx="1.5" ry="0.5" width="3" height="1" fill="#cacaca">
    <animate attributeName="opacity" values="1;0" keyTimes="0;1" dur="1.075268817204301s" begin="-0.25806451612903225s" repeatCount="indefinite"></animate>
  </rect>
</g><g transform="rotate(273.6 50 50)">
  <rect x="48.5" y="36.5" rx="1.5" ry="0.5" width="3" height="1" fill="#cacaca">
    <animate attributeName="opacity" values="1;0" keyTimes="0;1" dur="1.075268817204301s" begin="-0.21505376344086022s" repeatCount="indefinite"></animate>
  </rect>
</g><g transform="rotate(288 50 50)">
  <rect x="48.5" y="36.5" rx="1.5" ry="0.5" width="3" height="1" fill="#cacaca">
    <animate attributeName="opacity" values="1;0" keyTimes="0;1" dur="1.075268817204301s" begin="-0.17204301075268819s" repeatCount="indefinite"></animate>
  </rect>
</g><g transform="rotate(302.4 50 50)">
  <rect x="48.5" y="36.5" rx="1.5" ry="0.5" width="3" height="1" fill="#cacaca">
    <animate attributeName="opacity" values="1;0" keyTimes="0;1" dur="1.075268817204301s" begin="-0.12903225806451613s" repeatCount="indefinite"></animate>
  </rect>
</g><g transform="rotate(316.8 50 50)">
  <rect x="48.5" y="36.5" rx="1.5" ry="0.5" width="3" height="1" fill="#cacaca">
    <animate attributeName="opacity" values="1;0" keyTimes="0;1" dur="1.075268817204301s" begin="-0.08602150537634409s" repeatCount="indefinite"></animate>
  </rect>
</g><g transform="rotate(331.2 50 50)">
  <rect x="48.5" y="36.5" rx="1.5" ry="0.5" width="3" height="1" fill="#cacaca">
    <animate attributeName="opacity" values="1;0" keyTimes="0;1" dur="1.075268817204301s" begin="-0.043010752688172046s" repeatCount="indefinite"></animate>
  </rect>
</g><g transform="rotate(345.6 50 50)">
  <rect x="48.5" y="36.5" rx="1.5" ry="0.5" width="3" height="1" fill="#cacaca">
    <animate attributeName="opacity" values="1;0" keyTimes="0;1" dur="1.075268817204301s" begin="0s" repeatCount="indefinite"></animate>
  </rect>
</g>
<!-- [ldio] generated by https://loading.io/ --></svg>